<svg version="1.1" viewBox="0 0 16 16" xmlns="http://www.w3.org/2000/svg">
	<rect width="16" height="16" rx="1" ry="1" fill="#5d76f4" fill-rule="evenodd" stroke="#000" stroke-linejoin="round" stroke-width=".05"/>
	<path d="m7.1966 1.471c0.6886 1.8448 0.34855 2.8734-0.44206 3.664-0.83312 0.89263-2.1678 1.5557-3.086 2.8564-1.2327 1.7428-1.4452 5.5513 3.0009 6.546-1.8703-0.98614-2.2698-3.8426-0.25504-5.6193-0.51858 1.7258 0.45057 2.8309 1.6492 2.4314 1.1817-0.39956 1.9553 0.45057 1.9298 1.4197-0.017003 0.6631-0.26354 1.2242-0.96064 1.5387 2.9074-0.50157 4.0636-2.9074 4.0636-4.7267 0-2.4144-2.1508-2.7374-1.0627-4.7692-1.2922 0.11052-1.7258 0.96064-1.6067 2.3378 0.076511 0.91813-0.86713 1.5302-1.5812 1.1307-0.56958-0.34855-0.56108-1.0116-0.051007-1.5132 1.0627-1.0457 1.4877-3.477-1.5982-5.2878l-0.017002-0.017003z" fill="#fafafa" fill-rule="evenodd" stroke-width=".85012"/>
</svg>
