<svg version="1.1" viewBox="0 0 16 16" xmlns="http://www.w3.org/2000/svg">
	<rect width="16" height="16" rx="1" ry="1" fill="#5d76f4" fill-rule="evenodd" stroke="#000" stroke-linejoin="round" stroke-width=".05"/>
	<g transform="matrix(.15873 0 0 .15873 -11.31 -19.451)" fill="#fafafa">
		<path d="m89.936 146.13c3.5524 5.8508 2.3338 11.205 3.9726 22.178 2.8083 18.803 17.283 41.067 55.369 37.754-17.906 0.0672-31.581-7.9259-33.684-12.624 2.2742 1.7381 10.096 5.8299 19.344 8.2782 9.1934 2.4339 19.816 3.242 21.196-0.97286 1.3546-1.3353-3.4726-4.1662-8.4381-9.101-5.1644-5.1325-10.571-12.479-14.24-19.511-5.805-11.127-9.891-20.375-17.7-26.532-7.1111-5.6059-16.065-7.5268-28.803-5.0297 11.325 1.0758 19.756 12.788 24.284 25.981 3.9989 11.65 12.028 21.05 19.815 25.408-9.8841-1.2234-13.126-5.3822-18.268-12.416-2.738-3.7453-3.5199-9.602-6.942-16.138-2.7319-5.2176-10.195-13.933-15.906-17.273z"/>
		<path d="m118.53 141.18c3.529 2.8952 7.2204 4.3285 10.424 10.156 5.1472 7.3154 6.7492 18.057 10.36 24.558 6.046 13.142 11.431 16.463 16.768 18.874-6.7268-10.298-4.7185-24.607-8.0181-34.21-7.688-15.354-19.229-14.816-29.533-19.377z"/>
	</g>
</svg>
