<?xml version="1.0" standalone="no"?>
<!DOCTYPE svg PUBLIC "-//W3C//DTD SVG 20010904//EN"
 "http://www.w3.org/TR/2001/REC-SVG-20010904/DTD/svg10.dtd">
<svg version="1.0" xmlns="http://www.w3.org/2000/svg"
 width="552.000000pt" height="552.000000pt" viewBox="0 0 552.000000 552.000000"
 preserveAspectRatio="xMidYMid meet">
<metadata>
Created by potrace 1.11, written by Peter Selinger 2001-2013
</metadata>
<g transform="translate(0.000000,552.000000) scale(0.100000,-0.100000)"
fill="#000000" stroke="none">
<path d="M588 5415 c-2 -2 -35 -6 -73 -9 -92 -7 -161 -14 -210 -22 -22 -4 -55
-8 -73 -10 -18 -2 -41 -5 -50 -8 -9 -3 -37 -8 -62 -11 -25 -3 -61 -9 -80 -14
-34 -7 -33 -8 25 -15 148 -19 334 -80 485 -159 245 -127 519 -366 710 -617 19
-25 37 -47 40 -50 3 -3 21 -27 40 -55 19 -27 38 -51 42 -53 4 -2 8 -8 8 -13 0
-5 15 -31 33 -57 155 -221 359 -637 482 -982 26 -74 54 -149 61 -167 8 -17 14
-34 14 -38 0 -33 195 -441 274 -575 14 -25 34 -60 43 -77 9 -18 20 -33 25 -33
4 0 8 -5 8 -11 0 -28 236 -356 363 -504 76 -88 326 -337 391 -390 28 -22 58
-48 68 -58 10 -9 21 -17 24 -17 3 0 12 -7 20 -15 26 -25 201 -145 213 -145 6
0 11 -4 11 -9 0 -5 8 -12 18 -15 9 -4 28 -15 42 -26 l25 -19 -40 9 c-22 5 -87
19 -145 30 -155 31 -167 34 -270 70 -172 59 -348 159 -470 267 -93 82 -189
181 -183 187 4 3 1 6 -5 6 -9 0 -160 182 -225 271 -9 13 -43 58 -73 99 -96
129 -141 214 -235 445 -4 11 -22 61 -39 110 -17 50 -40 113 -50 140 -10 28
-37 102 -60 165 -76 207 -152 377 -240 535 -41 75 -122 199 -132 203 -5 2 -8
10 -8 17 0 7 -3 15 -7 17 -5 2 -24 26 -42 53 -19 28 -37 52 -41 55 -3 3 -18
23 -35 45 -16 22 -32 42 -35 45 -3 3 -19 23 -35 45 -17 22 -37 47 -45 55 -8 8
-38 42 -65 75 -122 146 -322 346 -495 496 -73 63 -269 204 -275 197 -1 -1 17
-46 42 -98 25 -52 54 -122 65 -155 25 -78 65 -247 72 -305 7 -58 17 -154 21
-205 2 -22 5 -40 5 -40 1 0 3 -29 5 -65 2 -36 7 -96 10 -135 4 -38 8 -90 10
-115 1 -25 6 -79 9 -120 4 -41 9 -97 11 -125 2 -27 7 -70 10 -95 3 -25 8 -65
10 -90 3 -25 7 -54 9 -66 4 -18 13 -82 21 -144 2 -20 18 -124 20 -130 3 -12
26 -117 29 -135 2 -11 16 -67 31 -125 15 -58 28 -113 30 -123 2 -9 7 -23 12
-30 4 -6 9 -16 10 -22 19 -79 59 -192 120 -340 49 -117 186 -390 208 -415 8
-8 15 -19 16 -25 4 -20 119 -198 132 -203 4 -2 7 -10 7 -18 0 -8 4 -14 8 -14
4 0 16 -13 25 -30 10 -16 23 -35 30 -42 7 -7 24 -29 37 -48 13 -19 27 -37 30
-40 4 -3 36 -39 71 -80 80 -94 212 -226 309 -310 41 -36 77 -68 80 -71 29 -31
360 -263 360 -251 0 4 4 2 8 -4 15 -25 298 -171 458 -237 141 -58 319 -122
400 -142 10 -3 80 -21 154 -40 144 -37 141 -36 270 -61 107 -20 113 -21 180
-29 30 -3 62 -8 70 -10 8 -2 47 -7 85 -10 39 -4 84 -9 100 -11 125 -17 726
-26 913 -14 62 4 70 20 10 20 -111 2 -245 11 -345 25 -21 3 -56 8 -78 10 -79
8 -131 15 -215 31 -77 14 -188 36 -200 39 -3 1 -23 5 -45 9 -22 4 -53 12 -70
17 -16 5 -102 29 -190 55 -589 168 -1124 474 -1310 750 -18 27 -32 50 -30 52
1 2 34 -17 71 -41 83 -54 151 -91 309 -170 66 -32 131 -65 145 -72 24 -13 352
-151 380 -160 3 -1 19 -7 35 -14 61 -25 413 -141 505 -165 52 -15 111 -30 130
-36 56 -15 213 -52 235 -54 11 -2 29 -6 40 -9 11 -4 36 -9 55 -11 19 -3 58 -9
85 -15 28 -5 70 -12 95 -16 25 -3 63 -8 85 -11 87 -12 103 -14 175 -21 105 -9
372 -9 453 1 66 7 82 10 130 22 12 3 32 7 45 10 13 2 52 18 87 35 111 52 193
172 164 241 -15 36 -141 164 -270 273 -52 44 -107 92 -124 106 -16 15 -42 38
-56 50 -166 148 -292 272 -410 404 -30 33 -66 73 -81 88 -16 16 -28 32 -28 37
0 5 -4 10 -8 12 -22 8 -299 366 -402 518 -30 45 -60 86 -65 93 -11 13 -44 62
-60 89 -5 10 -51 84 -102 165 -50 82 -100 164 -110 183 -58 105 -108 200 -173
325 -40 77 -77 146 -82 153 -6 6 -7 12 -4 12 4 0 -2 14 -14 30 -12 17 -23 36
-24 43 -1 7 -6 19 -11 27 -5 8 -36 67 -68 130 -245 478 -496 892 -657 1085
-14 17 -38 48 -55 69 -81 103 -227 252 -371 376 -32 28 -145 111 -214 157 -81
55 -265 153 -286 153 -8 0 -14 5 -14 10 0 6 -8 10 -17 10 -10 0 -31 7 -48 16
-29 15 -93 40 -125 49 -8 2 -46 13 -85 25 -88 26 -156 42 -226 54 -19 3 -45 8
-59 10 -43 7 -123 19 -160 23 -46 5 -507 12 -512 8z"/>
<path d="M2560 5250 c32 -27 178 -134 230 -170 88 -60 274 -219 326 -280 13
-15 76 -93 97 -120 19 -24 91 -134 92 -140 1 -6 19 -35 81 -130 144 -222 277
-525 419 -956 25 -76 50 -148 54 -159 5 -11 16 -45 26 -75 9 -30 19 -62 23
-70 3 -8 6 -17 6 -20 1 -3 9 -25 18 -50 9 -25 31 -85 48 -135 18 -49 41 -109
51 -132 11 -23 19 -45 19 -49 0 -13 242 -506 302 -614 98 -180 286 -460 373
-559 67 -74 213 -220 265 -261 30 -25 57 -47 60 -50 28 -32 407 -250 435 -250
2 0 -9 24 -25 52 -82 145 -191 389 -205 461 -2 9 -7 22 -11 28 -6 10 -16 47
-49 172 -9 32 -16 62 -21 87 -3 14 -7 33 -10 42 -3 10 -7 30 -10 45 -2 16 -9
48 -14 73 -9 43 -23 125 -34 203 -4 20 -8 52 -11 70 -6 37 -10 68 -20 167 -3
36 -8 72 -11 80 -4 15 -10 74 -19 175 -2 27 -6 61 -9 75 -2 14 -7 57 -11 95
-3 39 -8 77 -10 85 -2 8 -6 48 -10 89 -3 41 -8 77 -10 80 -1 3 -6 31 -9 61 -3
30 -11 82 -17 115 -5 33 -12 74 -15 90 -3 17 -19 86 -35 155 -17 69 -32 132
-34 140 -6 31 -40 107 -72 163 -18 33 -33 61 -33 63 0 11 -156 244 -203 304
-150 191 -327 354 -527 482 -82 53 -276 153 -370 192 -25 10 -58 24 -75 31
-25 11 -65 25 -85 30 -3 1 -18 7 -35 14 -16 7 -61 23 -100 36 -146 47 -271 87
-285 90 -37 8 -388 129 -477 165 l-98 40 35 -30z"/>
<path d="M4825 120 c4 -6 11 -8 16 -5 14 9 11 15 -7 15 -8 0 -12 -5 -9 -10z"/>
</g>
</svg>
