<?xml version="1.0" standalone="no"?>
<!DOCTYPE svg PUBLIC "-//W3C//DTD SVG 20010904//EN"
 "http://www.w3.org/TR/2001/REC-SVG-20010904/DTD/svg10.dtd">
<svg version="1.0" xmlns="http://www.w3.org/2000/svg"
 width="700.000000pt" height="700.000000pt" viewBox="0 0 700.000000 700.000000"
 preserveAspectRatio="xMidYMid meet">
<metadata>
Created by potrace 1.11, written by Peter Selinger 2001-2013
</metadata>
<g transform="translate(0.000000,700.000000) scale(0.100000,-0.100000)"
fill="#000000" stroke="none">
<path d="M3106 6808 c15 -42 72 -218 79 -248 67 -255 89 -407 89 -605 0 -133
-6 -196 -28 -301 -42 -198 -133 -381 -282 -563 -91 -112 -302 -313 -464 -441
-36 -29 -74 -59 -85 -69 -11 -9 -117 -92 -235 -185 -118 -93 -217 -172 -220
-175 -3 -3 -32 -28 -65 -56 -116 -96 -362 -334 -445 -431 -65 -74 -194 -248
-241 -325 -176 -282 -293 -648 -325 -1014 -7 -77 -6 -294 1 -355 3 -30 8 -75
10 -100 21 -195 97 -440 198 -639 229 -451 668 -812 1242 -1024 119 -44 218
-75 326 -102 57 -15 113 -29 124 -32 11 -2 -6 12 -38 31 -173 107 -338 260
-449 417 -130 184 -239 445 -273 654 -4 22 -9 51 -11 65 -23 133 -23 438 1
520 2 8 6 33 9 55 2 23 12 70 21 105 80 317 235 609 450 849 52 58 178 181
182 177 2 -2 -5 -37 -17 -77 -11 -41 -20 -76 -20 -79 0 -6 -6 -46 -16 -100
-13 -76 -12 -316 2 -395 56 -315 235 -536 489 -606 139 -38 267 -31 445 25 98
31 164 41 280 41 393 -1 683 -321 683 -755 0 -367 -150 -641 -430 -785 -61
-31 -48 -31 96 1 259 58 571 183 790 319 531 329 925 884 1075 1519 123 519
81 967 -128 1386 -57 114 -96 178 -294 491 -83 131 -144 256 -178 364 -25 79
-29 106 -29 220 0 168 13 238 67 370 16 39 30 75 32 80 1 6 12 29 24 52 12 23
22 45 22 48 0 15 -189 -20 -289 -55 -158 -53 -288 -149 -378 -277 -55 -78
-109 -211 -132 -324 -6 -30 -14 -67 -18 -84 -3 -16 -7 -163 -7 -325 -1 -255
-4 -303 -20 -355 -48 -160 -162 -294 -306 -363 -103 -49 -161 -62 -260 -58
-254 11 -456 214 -445 447 7 144 65 256 217 418 127 136 218 281 283 450 107
277 125 529 60 862 -26 133 -137 381 -243 541 -74 112 -79 118 -203 257 -170
191 -384 365 -672 545 -31 20 -59 36 -62 36 -2 0 3 -19 11 -42z"/>
</g>
</svg>
